<svg width="759" height="124" viewBox="0 0 759 124" fill="none" xmlns="http://www.w3.org/2000/svg">
<path d="M264.7 18.5C291.8 18.5 311.6 38 311.6 64.1C311.6 90.3 291.8 109.6 264.7 109.6H228V18.5H264.7ZM264.4 96.9C283.8 96.9 296.7 82.6 296.7 64.1C296.7 45.7 283.8 31.1 264.4 31.1H242V96.8H264.4V96.9Z" fill="white"/>
<path d="M329.3 18.4H393.2V31.2H343.4V56.3H386.2V69.1H343.4V96.7H394.6V109.5H329.3V18.4Z" fill="white"/>
<path d="M478.3 109.6H412.2V18.4H426.4V96.8H478.3V109.6Z" fill="white"/>
<path d="M495.1 83C499.5 91.9 507.9 98.3 520.2 98.3C530.7 98.3 538.9 93.3 538.9 85.3C538.9 77.6 531.6 74.3 518.2 70C500.9 64.4 487.2 58.7 487.4 42.5C487.5 25.8 503.2 17.1 518.4 17.1C535.3 17.1 546 26.2 551.1 35.9L540.2 43.6C536.3 36.5 528.9 30 518.4 30C509.7 30 501.5 34.4 501.5 42.5C501.5 50.6 509 52.7 521.8 57.1C538.8 62.9 553 67.6 553 85.2C553 102.5 536 111.1 520.4 111.1C502.5 111.1 489.7 102 484.5 90.4L495.1 83Z" fill="white"/>
<path d="M569.9 76.7V18.4H583.9V76C583.9 89.4 593.4 97.8 608.3 97.8C623.1 97.8 632.6 89.3 632.6 76V18.4H646.6V76.6C646.6 97.5 631.7 110.9 608.3 110.9C584.9 110.9 569.9 97.5 569.9 76.7Z" fill="white"/>
<path d="M705.8 18.5C732.9 18.5 752.7 38 752.7 64.1C752.7 90.3 732.9 109.6 705.8 109.6H669.1V18.5H705.8ZM705.6 96.9C725 96.9 737.9 82.6 737.9 64.1C737.9 45.7 725 31.1 705.6 31.1H683.2V96.8H705.6V96.9Z" fill="white"/>
<path d="M115.4 39.1C114.7 38.4 113.9 37.7 113.1 37L107.7 42.4C108.4 43 109 43.6 109.7 44.3L115.4 39.1Z" fill="white"/>
<path d="M8.1 49.2C7.6 51.1 7.2 53 6.8 55L59.8 52.3C59.6 51.4 59.4 50.5 59.2 49.6L8.1 49.2Z" fill="white"/>
<path d="M58.9 42.8L13.4 34.9C12.5 36.6 11.7 38.4 11 40.2L58.8 45.3C58.8 44.5 58.8 43.7 58.9 42.8Z" fill="white"/>
<path d="M21.9 22.6C20.6 24 19.4 25.5 18.3 27L59.6 39C59.8 38.3 60.1 37.5 60.4 36.8L21.9 22.6Z" fill="white"/>
<path d="M33.4 13.6C31.8 14.5 30.2 15.4 28.7 16.5L62.1 33.8C62.5 33.3 62.9 32.8 63.4 32.3L33.4 13.6Z" fill="white"/>
<path d="M9 95.8C9.6 97.8 10.2 99.7 10.8 101.6L69.7 72C69.1 71.2 68.6 70.4 68 69.7L9 95.8Z" fill="white"/>
<path d="M46.8 9.59998C46 9.69998 45.3 9.79997 44.5 9.89997C43.5 10.1 42.5 10.3 41.5 10.5L65.5 30.5C66 30.2 66.5 29.9 67 29.6L46.8 9.59998Z" fill="white"/>
<path d="M5.7 64.5C5.6 66.5 5.5 68.5 5.5 70.5L62.2 59.1C61.8 58.2 61.5 57.3 61.2 56.5L5.7 64.5Z" fill="white"/>
<path d="M6 80.2C6.2 82.1 6.5 84 6.8 85.9C6.8 86 6.8 86.1 6.9 86.2L65.5 65.8C65 65 64.5 64.1 64.1 63.3L6 80.2Z" fill="white"/>
<path d="M103.2 29C102.4 28.4 101.6 27.9 100.8 27.3L96.8 34.4C97.5 34.8 98.2 35.2 98.9 35.7L103.2 29Z" fill="white"/>
<path d="M90.7 21C89.9 20.5 89 20.1 88.2 19.7L86.3 29.5C87 29.7 87.6 29.9 88.3 30.2L90.7 21Z" fill="white"/>
<path d="M97 24.8C96.2 24.3 95.4 23.8 94.6 23.3L91.5 31.6C92.2 31.9 92.9 32.2 93.6 32.6L97 24.8Z" fill="white"/>
<path d="M109.4 33.8C108.6 33.2 107.8 32.5 107.1 31.9L102.4 38C103.1 38.5 103.8 39 104.5 39.6L109.4 33.8Z" fill="white"/>
<path d="M77.3 14.9C76.4 14.5 75.4 14.2 74.5 13.9L77.3 27.8C77.8 27.8 78.3 27.9 78.9 27.9L77.3 14.9Z" fill="white"/>
<path d="M69.5 12.3C68.3 12 67.2 11.7 66 11.4L73.4 27.8C73.9 27.8 74.4 27.7 74.9 27.7L69.5 12.3Z" fill="white"/>
<path d="M84.2 17.7C83.3 17.3 82.5 16.9 81.6 16.5L81.5 28.3C82.1 28.4 82.7 28.5 83.3 28.7L84.2 17.7Z" fill="white"/>
<path d="M59.7 10.2C58.6 9.99998 57.5 9.89998 56.3 9.79998C55.9 9.69998 55.5 9.69998 55 9.59998L69.4 28.6C69.9 28.4 70.4 28.3 70.9 28.2L59.7 10.2Z" fill="white"/>
<path d="M71.9 85.9C72.6 86.6 73.4 87.3 74.2 88L79.6 82.6C78.9 82 78.3 81.4 77.6 80.7L71.9 85.9Z" fill="white"/>
<path d="M179.1 75.8C179.6 73.9 180 72 180.4 70L127.4 72.7C127.6 73.6 127.8 74.5 128 75.4L179.1 75.8Z" fill="white"/>
<path d="M128.3 82.2L173.8 90.1C174.7 88.4 175.5 86.6 176.2 84.8L128.4 79.7C128.4 80.5 128.4 81.4 128.3 82.2Z" fill="white"/>
<path d="M165.3 102.4C166.6 101 167.8 99.5 168.9 98L127.6 86C127.4 86.7 127.1 87.5 126.8 88.2L165.3 102.4Z" fill="white"/>
<path d="M153.8 111.4C155.4 110.5 157 109.6 158.5 108.5L125.1 91.2C124.7 91.7 124.3 92.2 123.8 92.7L153.8 111.4Z" fill="white"/>
<path d="M178.3 29.2C177.7 27.2 177.1 25.3 176.5 23.4L117.5 53C118.1 53.8 118.6 54.6 119.2 55.3L178.3 29.2Z" fill="white"/>
<path d="M140.4 115.5C141.2 115.4 141.9 115.3 142.7 115.2C143.7 115 144.7 114.8 145.7 114.6L121.7 94.6C121.2 94.9 120.7 95.2 120.2 95.5L140.4 115.5Z" fill="white"/>
<path d="M181.6 60.5C181.7 58.5 181.8 56.5 181.8 54.5L125.1 65.9C125.5 66.8 125.8 67.7 126.1 68.5L181.6 60.5Z" fill="white"/>
<path d="M181.2 44.8C181 42.9 180.7 41 180.4 39.1C180.4 39 180.4 38.9 180.3 38.8L121.6 59.2C122.1 60 122.6 60.9 123 61.7L181.2 44.8Z" fill="white"/>
<path d="M84 96C84.8 96.6 85.6 97.1 86.4 97.7L90.4 90.6C89.7 90.2 89 89.8 88.3 89.3L84 96Z" fill="white"/>
<path d="M96.6 104C97.4 104.5 98.3 104.9 99.1 105.3L101 95.5C100.3 95.3 99.7 95.1 99 94.8L96.6 104Z" fill="white"/>
<path d="M90.2 100.2C91 100.7 91.8 101.2 92.6 101.7L95.7 93.4C95 93.1 94.3 92.8 93.6 92.4L90.2 100.2Z" fill="white"/>
<path d="M77.9 91.2C78.7 91.8 79.5 92.5 80.2 93.1L84.9 87C84.2 86.5 83.5 86 82.8 85.4L77.9 91.2Z" fill="white"/>
<path d="M109.9 110.2C110.8 110.6 111.8 110.9 112.7 111.2L109.9 97.3C109.4 97.3 108.9 97.2 108.3 97.2L109.9 110.2Z" fill="white"/>
<path d="M117.7 112.7C118.9 113 120 113.3 121.2 113.6L113.8 97.2C113.3 97.2 112.8 97.3 112.3 97.3L117.7 112.7Z" fill="white"/>
<path d="M103.1 107.3C104 107.7 104.8 108.1 105.7 108.5L105.8 96.8C105.2 96.7 104.6 96.6 104 96.4L103.1 107.3Z" fill="white"/>
<path d="M127.5 114.8C128.6 115 129.7 115.1 130.9 115.2C131.3 115.3 131.7 115.3 132.2 115.4L117.8 96.4C117.3 96.6 116.8 96.7 116.3 96.8L127.5 114.8Z" fill="white"/>
<path d="M175.2 7.79999L169 7.99999L113.1 48.1L80.7 69.8L78.4 71.3L75.2 73.5L15.2 111.2L11.8 117.2L18.3 117.1L77.2 74.4L110.2 52.3L114.1 49.7L172 13.6H172.1L175.2 7.79999Z" fill="white"/>
</svg>
